<?xml version="1.0" encoding="utf-8"?>
<!-- Generator: Adobe Illustrator 24.3.0, SVG Export Plug-In . SVG Version: 6.00 Build 0)  -->
<svg version="1.1" id="Ebene_1" xmlns="http://www.w3.org/2000/svg" xmlns:xlink="http://www.w3.org/1999/xlink" x="0px" y="0px"
	 viewBox="0 0 647.8 204.7" style="enable-background:new 0 0 647.8 204.7;" xml:space="preserve">
<style type="text/css">
	.st0{fill:#5692CE;}
</style>
<g id="gsf_Logo_P279">
	<g id="Linie_punkt_blau_copy_3">
	</g>
	<g id="gfs-z_xB8_rich">
	</g>
	<g>
		<g>
			<path class="st0" d="M122.9,204.7c-27,0-54.4-9.2-77.7-28C-7,134.4-15.1,57.5,27.2,5.3c1.4-1.7,3.9-2,5.6-0.6
				c1.7,1.4,2,3.9,0.6,5.6C-6.1,59.1,1.4,131,50.2,170.5c49.5,40,118.9,33.5,158-14.7c1.4-1.7,3.9-2,5.6-0.6c1.7,1.4,2,3.9,0.6,5.6
				C190.9,189.8,157.3,204.7,122.9,204.7z"/>
		</g>
	</g>
	<g>
		<rect x="220.8" y="73" width="29.9" height="8.1"/>
	</g>
</g>
<g id="Ebene_6">
	<g>
		<g>
			<path class="st0" d="M254.4,131.3h6.2l4.6,14h0.1l4.6-14h6.2v18.5h-3.7v-15.3h-0.1l-5.2,15.3h-3.7l-5.2-15.3l-0.1,0.1v15.2h-3.7
				L254.4,131.3L254.4,131.3z"/>
		</g>
		<g>
			<path class="st0" d="M286.1,131.3h4.4l7.6,18.5h-4.3l-1.7-4.2h-7.9l-1.7,4.2h-4L286.1,131.3z M288.3,135L288.3,135l-2.9,7.6h5.7
				L288.3,135z"/>
		</g>
		<g>
			<path class="st0" d="M300.3,131.3h4.2c4.2,0,9.1-0.1,9.1,5c0,2.2-1.5,4-4,4.3v0.1c1.1,0.1,1.7,1.1,2.1,1.9l3.1,7.2h-4.3l-2.3-5.8
				c-0.6-1.4-1.1-1.9-2.7-1.9h-1.2v7.7h-3.9v-18.5H300.3z M304.2,139.2h1.3c1.9,0,4.1-0.3,4.1-2.6c0-2.2-2.2-2.4-4.1-2.4h-1.3V139.2
				z"/>
		</g>
		<g>
			<path class="st0" d="M317.6,131.3h3.9v7.9l7-7.9h4.8l-8,8.7l8.3,9.8h-5.1l-7-8.6h-0.1v8.6h-3.9v-18.5H317.6z"/>
		</g>
		<g>
			<path class="st0" d="M339.6,134.2H334v-2.9h15v2.9h-5.5v15.6h-3.9V134.2z"/>
		</g>
		<g>
			<path class="st0" d="M347,144.1v-2.9h7.3v2.9H347z"/>
		</g>
		<g>
			<path class="st0" d="M377.3,143.8c0.9-1,1.2-2.6,1.2-4h3.4c-0.1,2.4-0.9,4.6-2.5,6.3l3.5,3.7h-4.8l-1.3-1.6c-1.4,1.3-3.4,2-5.3,2
				c-3.8,0-6.9-1.9-6.9-5.4c0-2.2,1-3.8,4.1-5.1c-1.5-1.4-2.7-2.3-2.7-4.5c0-2.8,3.2-4.2,5.9-4.2c2.7,0,5.6,1.2,5.6,4.2
				c0,2.5-1.6,3.7-3.7,4.9L377.3,143.8z M370.7,141.7c-1.3,0.6-2.4,1.5-2.4,3c0,1.6,1.5,2.7,3.3,2.7c1.3,0,2.5-0.3,3.4-1.1
				L370.7,141.7z M374.1,135.5c0-1.3-1-1.9-2.1-1.9s-2.2,0.6-2.2,2c0,1,1.1,1.9,1.8,2.6C372.5,137.7,374.1,136.6,374.1,135.5z"/>
		</g>
		<g>
			<path class="st0" d="M403.3,134.7c-1.2-0.5-2.6-0.8-3.9-0.8s-3.1,0.6-3.1,2.6c0,3.2,8.5,1.9,8.5,8.1c0,4.1-3.4,5.6-7.3,5.6
				c-2.1,0-3.1-0.3-5-0.7l0.4-3.3c1.3,0.7,2.9,1.1,4.4,1.1s3.4-0.7,3.4-2.4c0-3.5-8.5-2.1-8.5-8.2c0-4.1,3.4-5.6,6.8-5.6
				c1.7,0,3.2,0.2,4.6,0.7L403.3,134.7z"/>
		</g>
		<g>
			<path class="st0" d="M416.9,131c6.1,0,9.5,3.9,9.5,9.5s-3.4,9.6-9.5,9.6c-6.2,0-9.5-3.9-9.5-9.6C407.4,134.8,410.7,131,416.9,131
				z M416.9,147.2c4,0,5.4-3.4,5.4-6.7s-1.6-6.6-5.4-6.6c-3.9,0-5.4,3.3-5.4,6.6S412.9,147.2,416.9,147.2z"/>
		</g>
		<g>
			<path class="st0" d="M428.7,146.8l9.1-12.6h-8.7v-2.9H442v3l-9.2,12.6h9.4v2.9h-13.4L428.7,146.8L428.7,146.8z"/>
		</g>
		<g>
			<path class="st0" d="M445,131.3h3.9v18.5H445V131.3z"/>
		</g>
		<g>
			<path class="st0" d="M458.6,131.3h4.4l7.6,18.5h-4.3l-1.7-4.2h-7.9l-1.7,4.2h-4L458.6,131.3z M460.8,135L460.8,135l-2.9,7.6h5.7
				L460.8,135z"/>
		</g>
		<g>
			<path class="st0" d="M473.1,131.3h3.9v15.6h7.5v2.9h-11.4V131.3z"/>
		</g>
		<g>
			<path class="st0" d="M487,131.3h10.8v2.9h-6.9v4.6h6.5v2.9h-6.5v8.1H487V131.3z"/>
		</g>
		<g>
			<path class="st0" d="M509.4,131c6.1,0,9.5,3.9,9.5,9.5s-3.4,9.6-9.5,9.6c-6.2,0-9.5-3.9-9.5-9.6C499.9,134.8,503.2,131,509.4,131
				z M509.4,147.2c4,0,5.4-3.4,5.4-6.7s-1.6-6.6-5.4-6.6c-3.9,0-5.4,3.3-5.4,6.6S505.4,147.2,509.4,147.2z"/>
		</g>
		<g>
			<path class="st0" d="M522.1,131.3h4.2c4.2,0,9.1-0.1,9.1,5c0,2.2-1.5,4-4,4.3v0.1c1.1,0.1,1.7,1.1,2.1,1.9l3.1,7.2h-4.3L530,144
				c-0.6-1.4-1.1-1.9-2.7-1.9H526v7.7h-3.9V131.3z M526,139.2h1.3c1.9,0,4.1-0.3,4.1-2.6c0-2.2-2.2-2.4-4.1-2.4H526V139.2z"/>
		</g>
		<g>
			<path class="st0" d="M549.8,134.7c-1.2-0.5-2.6-0.8-3.9-0.8c-1.3,0-3.1,0.6-3.1,2.6c0,3.2,8.5,1.9,8.5,8.1c0,4.1-3.4,5.6-7.3,5.6
				c-2.1,0-3.1-0.3-5-0.7l0.4-3.3c1.3,0.7,2.9,1.1,4.4,1.1s3.4-0.7,3.4-2.4c0-3.5-8.5-2.1-8.5-8.2c0-4.1,3.4-5.6,6.8-5.6
				c1.7,0,3.2,0.2,4.6,0.7L549.8,134.7z"/>
		</g>
		<g>
			<path class="st0" d="M568.9,149.5c-1.4,0.3-2.9,0.6-4.4,0.6c-6.3,0-10.6-3-10.6-9.2c0-6.3,4-9.9,10.6-9.9c1.3,0,3,0.2,4.4,0.8
				l-0.3,3.1c-1.5-0.8-2.8-1-4.2-1c-4,0-6.5,2.9-6.5,6.7s2.4,6.6,6.6,6.6c1.5,0,3.3-0.3,4.2-0.8L568.9,149.5z"/>
		</g>
		<g>
			<path class="st0" d="M571.8,131.3h3.9v7.5h7.8v-7.5h3.9v18.5h-3.9v-8.1h-7.8v8.1h-3.9V131.3z"/>
		</g>
		<g>
			<path class="st0" d="M591.7,131.3h3.9V142c0,3.2,1.1,5.2,4,5.2c3,0,4-2.1,4-5.2v-10.7h3.9v11.8c0,5-2.9,7-7.9,7s-7.9-2-7.9-7
				V131.3z"/>
		</g>
		<g>
			<path class="st0" d="M611.6,131.3h4.8l7.4,13.8h0.1v-13.8h3.7v18.5h-4.7l-7.4-13.8h-0.1v13.8h-3.7L611.6,131.3L611.6,131.3z"/>
		</g>
		<g>
			<path class="st0" d="M647,134.9c-1.5-0.7-3.4-1-5-1c-4.5,0-7,2.9-7,6.7s2.4,6.6,6.6,6.6c1.1,0,1.9-0.1,2.6-0.3v-4.8H640v-2.9h7.8
				v10c-2.1,0.5-4.2,1-6.3,1c-6.3,0-10.6-3-10.6-9.2c0-6.3,4-9.9,10.6-9.9c2.2,0,4,0.3,5.7,0.8L647,134.9z"/>
		</g>
	</g>
</g>
<g id="Ebene_8">
	<g>
		<g>
			<path d="M108.8,57.1L94,56.5c2.6,3.1,3.9,7.4,3.9,11.4c0,10.9-9.1,23.1-27.7,23.1C68,91,65,90.7,62,90.1c-2.8,2.1-4.5,4-4.5,7.6
				c0,2.2,0.6,6.9,10.5,6.9c7.3,0,14.7,0.2,20.7,0.2c12.9,0,20.5,3.9,20.5,15.1c0,5.8-7.8,28.8-39.7,28.8c-19,0-28.3-8.7-28.3-16.8
				c0-9.6,8.4-15.4,17.5-17.2v-0.3c-6.3-1.8-13.2-6.2-13.2-13c0-1.7,0-3.3,0.6-4.8c4.2-2.6,10.3-5.5,12.4-7.5
				C50,84.7,44.3,79,44.3,69.1c0-13,9.6-23.1,28-23.1c4.5,0,9.6,1.1,13.2,2.1c4.2,1.2,8.4,2.5,14.5,2.5c2.7,0,4.8-0.1,8.7-0.8v7.3
				H108.8z M76.9,114.6c-9.7,0-24.9,0-24.9,14.1C52,139,61.3,144,71.8,144c9.1,0,26.2-3.9,26.2-17.2C98,115.8,84.8,114.6,76.9,114.6
				z M70.4,49.9c-9.1,0-13.2,9.1-13.2,17.1c0,8.7,3.7,20.1,14.1,20.1c10.2,0,14.5-8.4,14.5-17.5C85.9,60.4,80.9,49.9,70.4,49.9z"/>
		</g>
		<g>
			<path d="M160.4,48.3v8.1h-19v50.7c0,3.6,3.8,3.6,7,3.6h6.7v3.9c-6.4-0.1-12.7-0.3-19.2-0.3c-6.1,0-12.4,0.2-18.6,0.3v-3.9h5.7
				c5.5,0,6.3-2.6,6.3-4.8V56.4h-10.5v-2.5c3.4-2.1,10.5-4.3,10.5-9.4c0-9.7,2.7-24.4,12-34c8.2-8.5,16-10.3,18.1-10.3
				c2.5,0,6.7,0.6,6.7,6.1c0,3.3-1.6,5.9-5.2,5.9c-4.5,0-4.5-2.1-9.6-2.1c-9.1,0-10,10.8-10,16.9v21.4h19.1V48.3z"/>
		</g>
		<g>
			<path d="M171.5,93.7c2,9.9,7.9,18.3,18.9,18.3c8.8,0,12.1-5.4,12.1-10.6c0-17.7-32.7-12-32.7-36.1c0-8.4,6.8-19.2,23.2-19.2
				c4.8,0,11.2,1.4,17.1,4.4l1,15.3h-3.4c-1.5-9.4-6.8-14.8-16.3-14.8c-6,0-11.7,3.5-11.7,9.9c0,17.5,34.8,12.1,34.8,35.7
				c0,9.9-7.9,20.4-25.8,20.4c-6,0-13-2.1-18.3-5.1l-1.6-17.2L171.5,93.7z"/>
		</g>
	</g>
	<g>
		<g>
			<path d="M293.9,109.8c8.5-0.1,9.6-2.2,16.9-14.8l3.1,0.8l-4.2,18.9h-55v-1.2l40-60.3h-17.2c-7.2,0-12.4,0-15.7,11.1h-3.6l2-19h3
				c0,3.1,2.5,3.1,10,3.1h38.7l-39.7,61.5h21.7V109.8z"/>
		</g>
		<g>
			<path d="M387.2,106.3c0,2.7,1.6,2.8,4.2,2.8c1.8,0,4-0.1,6-0.1v3.1c-6.4,0.6-18.7,3.8-21.6,4.7l-0.8-0.5v-12.1
				c-9,7.3-15.9,12.6-26.5,12.6c-8.1,0-16.5-5.2-16.5-17.8V60.6c0-3.9-0.6-7.6-9-8.4v-2.9c5.4-0.1,17.4-1,19.3-1
				c1.6,0,1.6,1,1.6,4.4v38.7c0,4.5,0,17.4,13,17.4c5.1,0,11.8-3.9,18.1-9.2V59.2c0-3-7.2-4.6-12.6-6.1v-2.7
				c13.5-0.9,21.9-2.1,23.4-2.1c1.2,0,1.2,1,1.2,2.7v55.3H387.2z M342.5,29.8c-3.8,0-6.9-3.1-6.9-6.7s3.1-6.9,6.9-6.9
				c3.6,0,6.9,3.3,6.9,6.9S346.1,29.8,342.5,29.8z M371.6,29.8c-3.6,0-6.9-3.1-6.9-6.7s3.3-6.9,6.9-6.9s6.9,3.3,6.9,6.9
				S375.2,29.8,371.6,29.8z"/>
		</g>
		<g>
			<path d="M405.1,110.7h4c4.2,0,7.2,0,7.2-4.9V63.6c0-4.6-5.5-5.5-7.8-6.7v-2.2c10.9-4.6,16.9-8.5,18.3-8.5c0.9,0,1.3,0.5,1.3,2
				v13.5h0.3c3.7-5.9,10-15.4,19.2-15.4c3.7,0,8.5,2.6,8.5,7.9c0,4-2.8,7.6-7,7.6c-4.6,0-4.6-3.6-9.9-3.6c-2.5,0-10.9,3.5-10.9,12.4
				v35.2c0,4.9,3,4.9,7.2,4.9h8.4v3.9c-8.2-0.2-14.5-0.3-21-0.3c-6.1,0-12.4,0.1-17.8,0.3L405.1,110.7L405.1,110.7z"/>
		</g>
		<g>
			<path d="M464.6,110.7h2.9c4.2,0,7.2,0,7.2-4.9V65.1c0-6.6-2.2-7.5-7.8-10.5v-2.4c7-2.1,15.4-4.9,16-5.4c1-0.6,1.9-0.8,2.7-0.8
				s1.1,0.9,1.1,2.1v57.6c0,4.9,3.3,4.9,7.5,4.9h2.5v3.9c-5.1,0-10.3-0.3-15.7-0.3c-5.4,0-10.8,0.1-16.3,0.3v-3.8H464.6z
				 M480.7,22.9c-3.9,0-7.3-3.6-7.3-7.5c0-3.8,3.6-7.2,7.3-7.2c3.9,0,7.3,3.1,7.3,7.2S484.7,22.9,480.7,22.9z"/>
		</g>
		<g>
			<path d="M557,63c-6.3,0-6-12.1-20.1-12.1c-12.9,0-19.6,14.4-19.6,25.8c0,15.4,9.9,29.1,26.2,29.1c7.6,0,12.6-2.7,18.3-7l2.5,2.5
				c-7.3,8.5-17.4,15.6-29.2,15.6c-15.6,0-29.8-15.1-29.8-31c0-21.7,15.6-39.7,37.2-39.7c7.7,0,20.2,2.4,20.2,10.3
				C562.7,59.8,560.6,63,557,63z"/>
		</g>
		<g>
			<path d="M582.1,22.2c0-9.7-2.2-10-7.9-11.7V8.1c6-2,12.3-4.6,15.4-6.4c1.6-0.9,2.8-1.6,3.3-1.6c0.9,0,1.2,0.9,1.2,2.1v57.1
				C595.4,58,605,46,617.2,46c13,0,20.1,9.6,20.1,22.6v37c0,4.9,3.3,4.9,7.5,4.9h2.7v3.9c-5.2,0-10.5-0.3-16.2-0.3
				c-5.4,0-10.8,0.1-16.2,0.3v-3.9h2.7c7,0,7.5-1.6,7.5-16.3V77.4c0-10.9-1-22.3-14.7-22.3c-7,0-13,5.2-16.5,8.4v42.3
				c0,4.9,3.3,4.9,7.5,4.9h2.7v3.9c-5.2,0-10.5-0.3-15.9-0.3s-10.8,0.1-16.2,0.3v-3.9h2.7c4.2,0,7.2,0,7.2-4.9V22.2z"/>
		</g>
	</g>
</g>
</svg>
